<!DOCTYPE svg PUBLIC "-//W3C//DTD SVG 20010904//EN" "http://www.w3.org/TR/2001/REC-SVG-20010904/DTD/svg10.dtd">
<svg version="1.0" xmlns="http://www.w3.org/2000/svg" width="265px" height="250px" viewBox="0 0 2650 2500" preserveAspectRatio="xMidYMid meet">
<g id="layer101" fill="#daccae" stroke="none">
 <path d="M221 1424 c0 -11 3 -14 6 -6 3 7 2 16 -1 19 -3 4 -6 -2 -5 -13z"/>
 <path d="M2401 1024 c0 -11 3 -14 6 -6 3 7 2 16 -1 19 -3 4 -6 -2 -5 -13z"/>
 </g>
<g id="layer102" fill="#5e4e3a" stroke="none">
 <path d="M1390 1985 c-10 -12 -10 -15 4 -15 9 0 16 7 16 15 0 8 -2 15 -4 15 -2 0 -9 -7 -16 -15z"/>
 <path d="M1430 1895 c-14 -16 -10 -18 14 -9 9 3 16 10 16 15 0 14 -16 11 -30 -6z"/>
 <path d="M1155 1860 c-3 -6 1 -7 9 -4 18 7 21 14 7 14 -6 0 -13 -4 -16 -10z"/>
 <path d="M1375 1860 c-3 -6 1 -7 9 -4 18 7 21 14 7 14 -6 0 -13 -4 -16 -10z"/>
 <path d="M1344 1838 c-4 -7 -3 -8 4 -4 7 4 12 9 12 12 0 8 -9 4 -16 -8z"/>
 <path d="M1105 1830 c-3 -6 1 -7 9 -4 18 7 21 14 7 14 -6 0 -13 -4 -16 -10z"/>
 <path d="M1520 1831 c0 -5 5 -13 10 -16 6 -3 10 -2 10 4 0 5 -4 13 -10 16 -5 3 -10 2 -10 -4z"/>
 <path d="M1050 1800 c-9 -6 -10 -10 -3 -10 6 0 15 5 18 10 8 12 4 12 -15 0z"/>
 <path d="M1450 1785 c-20 -24 -6 -28 15 -5 10 11 13 20 8 20 -6 0 -16 -7 -23 -15z"/>
 <path d="M1245 1780 c-3 -5 -2 -10 4 -10 5 0 13 5 16 10 3 6 2 10 -4 10 -5 0 -13 -4 -16 -10z"/>
 <path d="M1571 1764 c0 -11 3 -14 6 -6 3 7 2 16 -1 19 -3 4 -6 -2 -5 -13z"/>
 <path d="M1214 1758 c-4 -7 -3 -8 4 -4 12 7 16 16 8 16 -3 0 -8 -5 -12 -12z"/>
 <path d="M963 1753 c4 -3 10 -3 14 0 3 4 0 7 -7 7 -7 0 -10 -3 -7 -7z"/>
 <path d="M1590 1736 c0 -2 7 -9 15 -16 9 -7 15 -8 15 -2 0 5 -7 12 -15 16 -8 3 -15 4 -15 2z"/>
 <path d="M1145 1720 c-3 -6 1 -7 9 -4 18 7 21 14 7 14 -6 0 -13 -4 -16 -10z"/>
 <path d="M1460 1716 c0 -2 8 -10 18 -17 15 -13 16 -12 3 4 -13 16 -21 21 -21 13z"/>
 <path d="M1084 1678 c-4 -7 -3 -8 4 -4 7 4 12 9 12 12 0 8 -9 4 -16 -8z"/>
 <path d="M1644 1671 c21 -23 26 -26 26 -11 0 5 -10 15 -22 21 -23 12 -23 12 -4 -10z"/>
 <path d="M695 1670 c-3 -5 -1 -10 4 -10 6 0 11 5 11 10 0 6 -2 10 -4 10 -3 0 -8 -4 -11 -10z"/>
 <path d="M951 1664 c0 -11 3 -14 6 -6 3 7 2 16 -1 19 -3 4 -6 -2 -5 -13z"/>
 <path d="M1500 1673 c0 -6 8 -17 18 -24 16 -13 16 -13 2 6 -8 11 -16 22 -17 24 -2 2 -3 0 -3 -6z"/>
 <path d="M575 1660 c-3 -5 3 -10 14 -10 12 0 21 5 21 10 0 6 -6 10 -14 10 -8 0 -18 -4 -21 -10z"/>
 <path d="M640 1660 c0 -7 3 -10 7 -7 3 4 3 10 0 14 -4 3 -7 0 -7 -7z"/>
 <path d="M1047 1650 c-3 -11 -3 -20 -1 -20 2 0 8 9 14 20 6 11 7 20 2 20 -6 0 -12 -9 -15 -20z"/>
 <path d="M475 1640 c-3 -5 -1 -10 4 -10 6 0 11 5 11 10 0 6 -2 10 -4 10 -3 0 -8 -4 -11 -10z"/>
 <path d="M523 1643 c4 -3 10 -3 14 0 3 4 0 7 -7 7 -7 0 -10 -3 -7 -7z"/>
 <path d="M1684 1621 c21 -23 26 -26 26 -11 0 5 -10 15 -22 21 -23 12 -23 12 -4 -10z"/>
 <path d="M355 1620 c-4 -6 3 -10 14 -10 25 0 27 6 6 13 -8 4 -17 2 -20 -3z"/>
 <path d="M403 1623 c4 -3 10 -3 14 0 3 4 0 7 -7 7 -7 0 -10 -3 -7 -7z"/>
 <path d="M700 1620 c0 -7 3 -10 7 -7 3 4 3 10 0 14 -4 3 -7 0 -7 -7z"/>
 <path d="M957 1623 c-11 -10 -8 -81 4 -88 7 -5 9 10 7 44 -2 28 -3 51 -4 51 0 0 -4 -3 -7 -7z"/>
 <path d="M1530 1622 c0 -12 19 -26 26 -19 2 2 -2 10 -11 17 -9 8 -15 8 -15 2z"/>
 <path d="M273 1603 c4 -3 10 -3 14 0 3 4 0 7 -7 7 -7 0 -10 -3 -7 -7z"/>
 <path d="M1580 1561 c0 -5 7 -12 16 -15 14 -5 15 -4 4 9 -14 17 -20 19 -20 6z"/>
 <path d="M711 1530 c0 -33 1 -34 11 -12 8 17 8 26 0 34 -9 9 -12 4 -11 -22z"/>
 <path d="M1745 1550 c3 -5 8 -10 11 -10 2 0 4 5 4 10 0 6 -5 10 -11 10 -5 0 -7 -4 -4 -10z"/>
 <path d="M580 1520 c0 -5 5 -10 10 -10 6 0 10 5 10 10 0 6 -4 10 -10 10 -5 0 -10 -4 -10 -10z"/>
 <path d="M1093 1513 c4 -3 10 -3 14 0 3 4 0 7 -7 7 -7 0 -10 -3 -7 -7z"/>
 <path d="M500 1499 c0 -5 5 -7 10 -4 6 3 10 8 10 11 0 2 -4 4 -10 4 -5 0 -10 -5 -10 -11z"/>
 <path d="M1790 1496 c0 -2 7 -9 15 -16 9 -7 15 -8 15 -2 0 5 -7 12 -15 16 -8 3 -15 4 -15 2z"/>
 <path d="M420 1479 c0 -5 5 -7 10 -4 6 3 10 8 10 11 0 2 -4 4 -10 4 -5 0 -10 -5 -10 -11z"/>
 <path d="M720 1480 c0 -7 3 -10 7 -7 3 4 3 10 0 14 -4 3 -7 0 -7 -7z"/>
 <path d="M316 1462 c-6 -10 30 -9 40 1 4 4 -2 7 -14 7 -11 0 -23 -4 -26 -8z"/>
 <path d="M1170 1454 c0 -8 5 -12 10 -9 6 4 8 11 5 16 -9 14 -15 11 -15 -7z"/>
 <path d="M1675 1450 c3 -5 8 -10 11 -10 3 0 2 5 -1 10 -3 6 -8 10 -11 10 -3 0 -2 -4 1 -10z"/>
 <path d="M1834 1441 c20 -22 26 -25 26 -13 0 4 -10 13 -22 21 -23 14 -23 14 -4 -8z"/>
 <path d="M243 1443 c4 -3 10 -3 14 0 3 4 0 7 -7 7 -7 0 -10 -3 -7 -7z"/>
 <path d="M625 1420 c3 -5 8 -10 11 -10 2 0 4 5 4 10 0 6 -5 10 -11 10 -5 0 -7 -4 -4 -10z"/>
 <path d="M1075 1400 c3 -5 8 -10 11 -10 3 0 2 5 -1 10 -3 6 -8 10 -11 10 -3 0 -2 -4 1 -10z"/>
 <path d="M1710 1406 c0 -2 8 -10 18 -17 15 -13 16 -12 3 4 -13 16 -21 21 -21 13z"/>
 <path d="M730 1376 c0 -31 6 -34 13 -6 3 11 1 23 -4 26 -5 3 -9 -6 -9 -20z"/>
 <path d="M1880 1388 c0 -2 9 -11 20 -21 11 -9 20 -13 20 -7 0 5 -9 14 -20 20 -11 6 -20 9 -20 8z"/>
 <path d="M1178 1367 c-12 -30 -10 -93 3 -80 5 5 9 30 7 54 -2 31 -5 39 -10 26z"/>
 <path d="M551 1304 c-34 -36 -61 -68 -59 -70 2 -2 35 28 73 66 38 39 65 70 59 70 -6 0 -38 -30 -73 -66z"/>
 <path d="M1760 1346 c0 -2 8 -10 18 -17 15 -13 16 -12 3 4 -13 16 -21 21 -21 13z"/>
 <path d="M730 1329 c0 -5 5 -7 10 -4 6 3 10 8 10 11 0 2 -4 4 -10 4 -5 0 -10 -5 -10 -11z"/>
 <path d="M1925 1330 c3 -5 8 -10 11 -10 3 0 2 5 -1 10 -3 6 -8 10 -11 10 -3 0 -2 -4 1 -10z"/>
 <path d="M704 1308 c-4 -7 -3 -8 4 -4 12 7 16 16 8 16 -3 0 -8 -5 -12 -12z"/>
 <path d="M1790 1300 c0 -5 5 -10 11 -10 5 0 7 5 4 10 -3 6 -8 10 -11 10 -2 0 -4 -4 -4 -10z"/>
 <path d="M1625 1280 c-4 -6 5 -10 20 -10 15 0 24 4 20 10 -3 6 -12 10 -20 10 -8 0 -17 -4 -20 -10z"/>
 <path d="M1707 1259 c7 -7 15 -10 18 -7 3 3 -2 9 -12 12 -14 6 -15 5 -6 -5z"/>
 <path d="M1055 1251 c-3 -5 -1 -12 5 -16 5 -3 10 1 10 9 0 18 -6 21 -15 7z"/>
 <path d="M650 1235 c-8 -9 -8 -15 -2 -15 12 0 26 19 19 26 -2 2 -10 -2 -17 -11z"/>
 <path d="M1525 1230 c-10 -11 -16 -22 -13 -25 2 -3 14 6 26 20 26 30 13 34 -13 5z"/>
 <path d="M1160 1210 c0 -7 3 -10 7 -7 3 4 3 10 0 14 -4 3 -7 0 -7 -7z"/>
 <path d="M1150 1180 c0 -7 3 -10 7 -7 3 4 3 10 0 14 -4 3 -7 0 -7 -7z"/>
 <path d="M1623 1184 c9 -10 86 -11 81 -2 -3 4 -24 8 -46 8 -23 0 -39 -3 -35 -6z"/>
 <path d="M1037 1161 c-4 -17 -3 -21 5 -13 5 5 8 16 6 23 -3 8 -7 3 -11 -10z"/>
 <path d="M1589 1153 c-13 -16 -12 -17 4 -4 16 13 21 21 13 21 -2 0 -10 -8 -17 -17z"/>
 <path d="M1730 1152 c0 -12 19 -26 26 -19 2 2 -2 10 -11 17 -9 8 -15 8 -15 2z"/>
 <path d="M2195 1140 c3 -5 8 -10 11 -10 3 0 2 5 -1 10 -3 6 -8 10 -11 10 -3 0 -2 -4 1 -10z"/>
 <path d="M1476 1123 c-6 -14 -5 -15 5 -6 7 7 10 15 7 18 -3 3 -9 -2 -12 -12z"/>
 <path d="M490 1120 c0 -7 3 -10 7 -7 3 4 3 10 0 14 -4 3 -7 0 -7 -7z"/>
 <path d="M1016 1113 c-6 -14 -5 -15 5 -6 7 7 10 15 7 18 -3 3 -9 -2 -12 -12z"/>
 <path d="M1137 1124 c-4 -4 -7 -14 -7 -23 0 -11 3 -12 11 -4 6 6 10 16 7 23 -2 6 -7 8 -11 4z"/>
 <path d="M2227 1119 c7 -7 15 -10 18 -7 3 3 -2 9 -12 12 -14 6 -15 5 -6 -5z"/>
 <path d="M2070 1109 c0 -5 5 -7 10 -4 6 3 10 8 10 11 0 2 -4 4 -10 4 -5 0 -10 -5 -10 -11z"/>
 <path d="M1560 1090 c0 -7 3 -10 7 -7 3 4 3 10 0 14 -4 3 -7 0 -7 -7z"/>
 <path d="M2260 1096 c0 -2 7 -7 16 -10 8 -3 12 -2 9 4 -6 10 -25 14 -25 6z"/>
 <path d="M994 1078 c-4 -7 -3 -8 4 -4 7 4 12 9 12 12 0 8 -9 4 -16 -8z"/>
 <path d="M490 1053 c0 -34 17 -46 18 -14 0 17 -4 31 -9 31 -5 0 -9 -8 -9 -17z"/>
 <path d="M1550 1050 c0 -19 3 -21 12 -12 9 9 9 15 0 24 -9 9 -12 7 -12 -12z"/>
 <path d="M2325 1060 c3 -5 8 -10 11 -10 3 0 2 5 -1 10 -3 6 -8 10 -11 10 -3 0 -2 -4 1 -10z"/>
 <path d="M974 1048 c-4 -7 -3 -8 4 -4 12 7 16 16 8 16 -3 0 -8 -5 -12 -12z"/>
 <path d="M1461 1044 c0 -11 3 -14 6 -6 3 7 2 16 -1 19 -3 4 -6 -2 -5 -13z"/>
 <path d="M610 1031 c0 -25 6 -27 13 -6 4 8 2 17 -3 20 -6 4 -10 -3 -10 -14z"/>
 <path d="M1985 1039 c-11 -17 1 -21 15 -4 8 9 8 15 2 15 -6 0 -14 -5 -17 -11z"/>
 <path d="M1080 1005 c-11 -13 -10 -14 4 -9 9 3 16 10 16 15 0 13 -6 11 -20 -6z"/>
 <path d="M1450 1010 c0 -7 3 -10 7 -7 3 4 3 10 0 14 -4 3 -7 0 -7 -7z"/>
 <path d="M919 991 c-13 -11 -21 -22 -18 -25 3 -3 16 5 29 19 28 30 22 33 -11 6z"/>
 <path d="M627 989 c7 -7 15 -10 18 -7 3 3 -2 9 -12 12 -14 6 -15 5 -6 -5z"/>
 <path d="M2123 983 c4 -3 10 -3 14 0 3 4 0 7 -7 7 -7 0 -10 -3 -7 -7z"/>
 <path d="M673 973 c4 -3 10 -3 14 0 3 4 0 7 -7 7 -7 0 -10 -3 -7 -7z"/>
 <path d="M1054 968 c-4 -7 -3 -8 4 -4 12 7 16 16 8 16 -3 0 -8 -5 -12 -12z"/>
 <path d="M2094 968 c-4 -7 -3 -8 4 -4 12 7 16 16 8 16 -3 0 -8 -5 -12 -12z"/>
 <path d="M745 960 c-3 -5 1 -10 10 -10 9 0 13 5 10 10 -3 6 -8 10 -10 10 -2 0 -7 -4 -10 -10z"/>
 <path d="M813 943 c4 -3 10 -3 14 0 3 4 0 7 -7 7 -7 0 -10 -3 -7 -7z"/>
 <path d="M2054 938 c-4 -7 -3 -8 4 -4 12 7 16 16 8 16 -3 0 -8 -5 -12 -12z"/>
 <path d="M2290 936 c0 -2 8 -10 18 -17 15 -13 16 -12 3 4 -13 16 -21 21 -21 13z"/>
 <path d="M996 904 c-18 -25 -18 -25 3 -12 12 7 21 18 21 25 0 18 -2 16 -24 -13z"/>
 <path d="M1910 920 c0 -7 3 -10 7 -7 3 4 3 10 0 14 -4 3 -7 0 -7 -7z"/>
 <path d="M2031 881 c-1 -34 2 -42 11 -33 8 8 8 20 1 44 l-11 33 -1 -44z"/>
 <path d="M583 903 c4 -3 10 -3 14 0 3 4 0 7 -7 7 -7 0 -10 -3 -7 -7z"/>
 <path d="M615 900 c3 -5 8 -10 11 -10 3 0 2 5 -1 10 -3 6 -8 10 -11 10 -3 0 -2 -4 1 -10z"/>
 <path d="M1914 889 c-3 -6 -1 -16 5 -22 8 -8 11 -5 11 11 0 24 -5 28 -16 11z"/>
 <path d="M694 863 c10 -10 46 -11 40 -1 -3 4 -15 8 -26 8 -12 0 -18 -3 -14 -7z"/>
 <path d="M944 848 c-4 -7 -3 -8 4 -4 12 7 16 16 8 16 -3 0 -8 -5 -12 -12z"/>
 <path d="M773 843 c4 -3 10 -3 14 0 3 4 0 7 -7 7 -7 0 -10 -3 -7 -7z"/>
 <path d="M855 820 c27 -12 43 -12 25 0 -8 5 -22 9 -30 9 -10 0 -8 -3 5 -9z"/>
 <path d="M914 818 c-4 -7 -3 -8 4 -4 12 7 16 16 8 16 -3 0 -8 -5 -12 -12z"/>
 <path d="M1925 800 c3 -5 8 -10 11 -10 2 0 4 5 4 10 0 6 -5 10 -11 10 -5 0 -7 -4 -4 -10z"/>
 <path d="M1550 775 c1 -26 2 -28 11 -12 8 14 8 22 0 30 -8 8 -11 3 -11 -18z"/>
 <path d="M1940 760 c0 -7 3 -10 7 -7 3 4 3 10 0 14 -4 3 -7 0 -7 -7z"/>
 <path d="M2050 737 c0 -20 4 -38 8 -41 11 -6 9 60 -1 70 -4 4 -7 -9 -7 -29z"/>
 <path d="M1446 747 c3 -10 9 -15 12 -12 3 3 0 11 -7 18 -10 9 -11 8 -5 -6z"/>
 <path d="M1560 733 c0 -11 38 -49 43 -42 2 2 -7 15 -20 28 -13 13 -23 20 -23 14z"/>
 <path d="M1905 716 c-16 -13 -27 -27 -24 -30 3 -3 18 8 34 24 35 36 31 38 -10 6z"/>
 <path d="M1450 676 c0 -8 5 -18 10 -21 6 -3 10 3 10 14 0 12 -4 21 -10 21 -5 0 -10 -6 -10 -14z"/>
 <path d="M2020 655 c-13 -14 -19 -25 -13 -25 6 0 18 11 27 25 9 14 15 25 13 25 -2 0 -14 -11 -27 -25z"/>
 <path d="M1844 638 c-4 -7 -3 -8 4 -4 12 7 16 16 8 16 -3 0 -8 -5 -12 -12z"/>
 <path d="M1713 633 c4 -3 10 -3 14 0 3 4 0 7 -7 7 -7 0 -10 -3 -7 -7z"/>
 <path d="M1490 626 c0 -2 7 -7 16 -10 8 -3 12 -2 9 4 -6 10 -25 14 -25 6z"/>
 <path d="M1755 620 c3 -5 11 -10 16 -10 6 0 7 5 4 10 -3 6 -11 10 -16 10 -6 0 -7 -4 -4 -10z"/>
 <path d="M1533 603 c4 -3 10 -3 14 0 3 4 0 7 -7 7 -7 0 -10 -3 -7 -7z"/>
 <path d="M1940 585 c-8 -9 -8 -15 -2 -15 12 0 26 19 19 26 -2 2 -10 -2 -17 -11z"/>
 <path d="M1623 563 c4 -3 10 -3 14 0 3 4 0 7 -7 7 -7 0 -10 -3 -7 -7z"/>
 <path d="M1875 530 c-10 -11 -13 -20 -7 -20 6 0 16 9 22 20 6 11 9 20 7 20 -2 0 -12 -9 -22 -20z"/>
 <path d="M1708 523 c7 -3 16 -2 19 1 4 3 -2 6 -13 5 -11 0 -14 -3 -6 -6z"/>
 <path d="M1803 483 c4 -3 10 -3 14 0 3 4 0 7 -7 7 -7 0 -10 -3 -7 -7z"/>
 </g>
<g id="layer103" fill="#685130" stroke="none">
 <path d="M1278 1933 c-59 -32 -105 -59 -103 -61 4 -5 215 107 215 114 0 6 2 7 -112 -53z"/>
 <path d="M1410 1975 c0 -9 30 -65 35 -65 7 0 -16 60 -26 66 -5 3 -9 2 -9 -1z"/>
 <path d="M1351 1839 c-36 -21 -72 -46 -80 -55 -12 -12 140 76 158 92 17 15 -25 -4 -78 -37z"/>
 <path d="M1062 1818 c-51 -27 -91 -52 -88 -55 2 -2 36 14 76 36 39 23 75 41 80 41 4 0 13 7 20 15 17 21 16 20 -88 -37z"/>
 <path d="M1489 1820 c-13 -10 -19 -19 -13 -20 6 0 19 9 29 20 23 26 14 26 -16 0z"/>
 <path d="M1540 1811 c0 -5 7 -15 17 -22 15 -13 15 -12 4 9 -12 23 -21 28 -21 13z"/>
 <path d="M1155 1719 c-84 -53 -129 -90 -60 -49 87 52 159 100 150 99 -5 0 -46 -23 -90 -50z"/>
 <path d="M1426 1762 c-3 -5 19 -40 49 -77 30 -37 55 -63 55 -59 0 4 -16 26 -35 50 -20 24 -42 55 -49 69 -8 15 -17 22 -20 17z"/>
 <path d="M1580 1761 c0 -5 7 -15 17 -22 15 -13 15 -12 4 9 -12 23 -21 28 -21 13z"/>
 <path d="M944 1746 c-3 -8 -4 -25 -2 -38 3 -17 5 -13 9 15 5 38 2 47 -7 23z"/>
 <path d="M1620 1711 c0 -5 7 -15 17 -22 15 -13 15 -12 4 9 -12 23 -21 28 -21 13z"/>
 <path d="M625 1670 c-13 -6 -5 -7 25 -3 25 3 47 7 49 9 9 8 -55 2 -74 -6z"/>
 <path d="M505 1650 c-14 -7 -8 -8 20 -3 22 3 42 7 44 9 9 8 -45 2 -64 -6z"/>
 <path d="M700 1646 c0 -8 4 -17 9 -20 5 -4 7 3 4 14 -6 23 -13 26 -13 6z"/>
 <path d="M940 1653 c0 -4 5 -15 10 -23 8 -13 10 -13 10 2 0 9 -4 20 -10 23 -5 3 -10 3 -10 -2z"/>
 <path d="M1670 1651 c0 -6 4 -13 10 -16 6 -3 7 1 4 9 -7 18 -14 21 -14 7z"/>
 <path d="M440 1640 l-25 -8 27 -1 c15 -1 30 4 33 9 7 11 0 11 -35 0z"/>
 <path d="M385 1630 c-16 -7 -17 -9 -3 -9 9 -1 20 4 23 9 7 11 7 11 -20 0z"/>
 <path d="M320 1620 l-25 -8 27 -1 c15 -1 30 4 33 9 7 11 0 11 -35 0z"/>
 <path d="M712 1585 c0 -16 2 -22 5 -12 2 9 2 23 0 30 -3 6 -5 -1 -5 -18z"/>
 <path d="M1051 1583 c-1 -28 5 -36 42 -59 23 -14 55 -35 71 -46 17 -12 27 -15 24 -7 -2 7 -31 27 -64 45 -49 28 -60 39 -65 66 l-6 33 -2 -32z"/>
 <path d="M1710 1602 c0 -5 10 -17 22 -28 l21 -19 -18 28 c-18 28 -25 33 -25 19z"/>
 <path d="M1560 1582 c6 -13 14 -21 18 -18 3 4 -2 14 -12 24 -18 16 -18 16 -6 -6z"/>
 <path d="M1601 1531 c34 -48 184 -229 188 -225 4 4 -189 244 -196 244 -3 0 1 -9 8 -19z"/>
 <path d="M1760 1542 c0 -5 12 -19 27 -33 l26 -24 -23 33 c-25 33 -30 38 -30 24z"/>
 <path d="M962 1499 c-2 -33 1 -37 47 -59 54 -25 59 -31 56 -72 -1 -15 2 -25 7 -22 11 7 10 41 -2 64 -6 11 -30 28 -54 39 -38 16 -45 24 -49 53 l-4 33 -1 -36z"/>
 <path d="M545 1513 c-11 -3 -24 -9 -29 -14 -5 -5 5 -4 24 1 51 15 55 25 5 13z"/>
 <path d="M612 1500 c0 -14 4 -36 8 -50 l8 -25 0 25 c0 14 -4 36 -8 50 l-8 25 0 -25z"/>
 <path d="M720 1506 c0 -8 4 -17 9 -20 5 -4 7 3 4 14 -6 23 -13 26 -13 6z"/>
 <path d="M465 1493 c-11 -3 -24 -9 -29 -14 -5 -5 5 -4 24 1 51 15 55 25 5 13z"/>
 <path d="M385 1473 c-11 -3 -24 -9 -29 -14 -5 -5 5 -4 24 1 51 15 55 25 5 13z"/>
 <path d="M1820 1471 c0 -5 7 -15 17 -22 15 -13 15 -12 4 9 -12 23 -21 28 -21 13z"/>
 <path d="M730 1437 c0 -20 5 -39 11 -42 7 -5 8 5 3 32 -9 51 -14 54 -14 10z"/>
 <path d="M323 1453 c4 -3 10 -3 14 0 3 4 0 7 -7 7 -7 0 -10 -3 -7 -7z"/>
 <path d="M245 1440 l-20 -9 20 1 c11 0 31 4 45 8 l25 8 -25 0 c-14 0 -34 -3 -45 -8z"/>
 <path d="M1183 1415 c0 -22 2 -30 4 -17 2 12 2 30 0 40 -3 9 -5 -1 -4 -23z"/>
 <path d="M1860 1422 c0 -5 10 -17 21 -28 22 -19 22 -19 10 3 -12 24 -31 39 -31 25z"/>
 <path d="M625 1395 c0 -13 3 -21 8 -18 4 2 7 10 7 18 0 8 -3 16 -7 18 -5 3 -8 -5 -8 -18z"/>
 <path d="M740 1360 c0 -11 4 -20 9 -20 5 0 7 9 4 20 -3 11 -7 20 -9 20 -2 0 -4 -9 -4 -20z"/>
 <path d="M1920 1356 c0 -5 8 -18 17 -28 16 -18 13 -23 -72 -108 -49 -50 -96 -90 -104 -90 -12 0 -12 -3 -3 -12 10 -10 34 9 112 87 l100 100 -25 30 c-13 17 -24 26 -25 21z"/>
 <path d="M696 1286 c-36 -48 -33 -54 5 -11 18 20 29 38 27 41 -3 2 -17 -11 -32 -30z"/>
 <path d="M1059 1288 c-3 -22 -1 -34 4 -29 5 5 7 21 5 37 -3 27 -4 26 -9 -8z"/>
 <path d="M519 1273 c-13 -16 -12 -17 4 -4 9 7 17 15 17 17 0 8 -8 3 -21 -13z"/>
 <path d="M1177 1283 c-4 -3 -7 -20 -6 -37 l1 -31 8 35 c9 36 8 45 -3 33z"/>
 <path d="M1582 1273 c-18 -8 -31 -17 -29 -20 5 -4 77 26 77 32 0 9 -14 5 -48 -12z"/>
 <path d="M1664 1283 c8 -9 79 -33 84 -29 3 4 -73 36 -85 36 -3 0 -3 -3 1 -7z"/>
 <path d="M1774 1268 l-19 -23 23 19 c21 18 27 26 19 26 -2 0 -12 -10 -23 -22z"/>
 <path d="M478 1228 c-2 -7 -1 -31 3 -53 6 -40 6 -39 8 13 1 51 -3 65 -11 40z"/>
 <path d="M1036 1186 c-9 -30 -37 -85 -62 -122 -25 -36 -40 -63 -34 -59 36 23 133 216 116 232 -2 3 -11 -20 -20 -51z"/>
 <path d="M630 1205 c-7 -9 -11 -18 -8 -20 3 -3 11 1 18 10 7 9 11 18 8 20 -3 3 -11 -1 -18 -10z"/>
 <path d="M1159 1183 c-5 -14 -8 -34 -7 -42 2 -9 9 3 15 27 12 47 8 56 -8 15z"/>
 <path d="M1482 1163 c-22 -52 -44 -155 -31 -147 4 2 11 26 15 52 4 26 15 67 26 91 10 24 17 46 15 48 -3 2 -14 -18 -25 -44z"/>
 <path d="M1596 1149 c-14 -17 -26 -38 -26 -47 1 -9 7 -3 14 14 8 17 24 39 37 48 13 9 18 16 12 16 -6 0 -23 -14 -37 -31z"/>
 <path d="M1681 1176 c2 -2 15 -9 29 -15 24 -11 24 -11 6 3 -16 13 -49 24 -35 12z"/>
 <path d="M2152 1175 c14 -14 231 -145 235 -141 4 4 -222 146 -234 146 -3 0 -4 -2 -1 -5z"/>
 <path d="M611 1113 c-1 -34 3 -64 7 -67 5 -3 7 21 5 52 -6 81 -11 87 -12 15z"/>
 <path d="M2103 1145 c-15 -13 -23 -25 -17 -25 6 0 21 11 34 25 30 32 19 32 -17 0z"/>
 <path d="M492 1090 c0 -14 2 -19 5 -12 2 6 2 18 0 25 -3 6 -5 1 -5 -13z"/>
 <path d="M2030 1080 c-19 -16 -30 -30 -24 -30 5 0 23 14 39 30 36 38 30 38 -15 0z"/>
 <path d="M1120 1059 c-12 -23 -20 -43 -18 -45 3 -2 14 17 26 41 27 56 20 60 -8 4z"/>
 <path d="M1560 1070 c0 -7 3 -10 7 -7 3 4 3 10 0 14 -4 3 -7 0 -7 -7z"/>
 <path d="M1554 1026 c-3 -8 -4 -29 -2 -48 3 -29 4 -27 8 15 5 48 3 58 -6 33z"/>
 <path d="M624 1010 c1 -14 39 -31 101 -43 43 -9 2 9 -52 23 -23 6 -43 16 -46 23 -2 6 -3 5 -3 -3z"/>
 <path d="M1937 997 c-21 -18 -37 -41 -36 -52 0 -14 2 -16 6 -5 3 8 22 32 41 53 44 45 40 47 -11 4z"/>
 <path d="M501 978 c-1 -30 4 -41 24 -54 29 -19 156 -67 162 -61 4 4 -7 9 -97 41 -65 23 -72 30 -80 72 l-8 39 -1 -37z"/>
 <path d="M2144 998 c-4 -7 -3 -8 4 -4 12 7 16 16 8 16 -3 0 -8 -5 -12 -12z"/>
 <path d="M2170 1006 c0 -8 181 -129 186 -124 2 2 -27 24 -64 49 -106 72 -122 82 -122 75z"/>
 <path d="M1051 959 c-18 -22 -31 -42 -29 -45 3 -2 19 14 37 37 18 22 31 42 29 44 -2 2 -18 -14 -37 -36z"/>
 <path d="M1444 875 c0 -66 1 -92 3 -57 2 34 2 88 0 120 -2 31 -3 3 -3 -63z"/>
 <path d="M2095 964 c-11 -9 -29 -22 -39 -30 -11 -7 -18 -15 -15 -18 2 -2 24 11 48 30 24 19 40 34 35 34 -5 0 -18 -8 -29 -16z"/>
 <path d="M768 958 c6 -6 18 -8 28 -6 14 3 12 5 -9 10 -19 3 -25 2 -19 -4z"/>
 <path d="M876 954 c-11 -8 -16 -14 -10 -14 13 0 39 18 34 24 -3 2 -14 -2 -24 -10z"/>
 <path d="M827 949 c7 -7 15 -10 18 -7 3 3 -2 9 -12 12 -14 6 -15 5 -6 -5z"/>
 <path d="M1910 900 c0 -7 3 -10 7 -7 3 4 3 10 0 14 -4 3 -7 0 -7 -7z"/>
 <path d="M960 855 c-24 -25 -51 -45 -60 -45 -8 0 -53 12 -99 25 -47 14 -86 23 -89 21 -5 -5 127 -45 172 -53 35 -5 71 17 106 67 30 42 21 37 -30 -15z"/>
 <path d="M1550 836 c0 -19 3 -37 8 -40 4 -2 6 13 4 35 -5 48 -12 51 -12 5z"/>
 <path d="M1916 843 c9 -38 14 -42 14 -10 0 14 -5 29 -10 32 -7 4 -8 -3 -4 -22z"/>
 <path d="M2047 813 c8 -52 19 -62 15 -13 -2 22 -8 42 -12 45 -5 3 -6 -12 -3 -32z"/>
 <path d="M1928 775 c2 -14 -2 -33 -9 -43 -13 -15 -12 -16 4 -3 18 14 23 56 8 65 -4 3 -6 -6 -3 -19z"/>
 <path d="M1560 756 c0 -8 4 -17 9 -20 5 -4 7 3 4 14 -6 23 -13 26 -13 6z"/>
 <path d="M1440 728 c0 -7 5 -20 10 -28 8 -12 10 -11 10 7 0 12 -4 25 -10 28 -5 3 -10 0 -10 -7z"/>
 <path d="M2064 720 c4 -16 -2 -33 -17 -50 -20 -23 -19 -23 8 2 25 24 27 30 16 50 l-12 23 5 -25z"/>
 <path d="M1580 715 c0 -7 161 -87 166 -83 2 2 -35 23 -81 46 -47 23 -85 40 -85 37z"/>
 <path d="M1839 654 c-21 -22 -41 -33 -51 -30 -10 2 -16 0 -12 -5 3 -5 12 -9 20 -9 17 0 91 66 83 74 -3 3 -21 -10 -40 -30z"/>
 <path d="M1452 650 c3 -13 218 -127 243 -129 20 -2 -34 28 -124 68 -52 22 -100 49 -108 59 -11 13 -13 13 -11 2z"/>
 <path d="M1974 609 c-19 -22 -19 -22 3 -10 24 12 39 31 25 31 -5 0 -17 -10 -28 -21z"/>
 <path d="M1904 549 c-19 -22 -19 -22 3 -10 24 12 39 31 25 31 -5 0 -17 -10 -28 -21z"/>
 <path d="M1710 516 c0 -2 24 -14 54 -26 52 -21 55 -21 80 -4 15 9 25 19 22 21 -2 3 -15 -3 -29 -11 -22 -15 -28 -15 -71 4 -49 21 -56 23 -56 16z"/>
 </g>
<g id="layer104" fill="#fffdd1" stroke="none">
 <path d="M1180 2394 c-169 -21 -393 -114 -529 -218 -84 -65 -206 -193 -255 -267 -49 -76 -123 -225 -131 -265 l-5 -29 11 25 c7 14 29 61 49 106 145 316 423 537 780 621 111 26 355 23 471 -5 324 -79 589 -283 735 -565 121 -234 155 -473 107 -747 -3 -19 -3 -33 0 -30 18 17 39 211 33 305 -31 516 -369 924 -866 1046 -83 21 -313 34 -400 23z"/>
 <path d="M213 1385 c0 -22 2 -30 4 -17 2 12 2 30 0 40 -3 9 -5 -1 -4 -23z"/>
 <path d="M207 1333 c-11 -10 -8 -111 3 -118 6 -4 10 18 10 59 0 66 -1 72 -13 59z"/>
 <path d="M211 1163 c-2 -70 45 -243 95 -352 42 -90 130 -225 174 -266 25 -23 21 -14 -18 35 -129 167 -211 358 -241 567 -8 54 -9 55 -10 16z"/>
 <path d="M2380 940 c0 -7 3 -10 7 -7 3 4 3 10 0 14 -4 3 -7 0 -7 -7z"/>
 <path d="M2324 797 c-142 -297 -412 -514 -740 -597 -71 -18 -120 -23 -235 -24 -81 0 -145 -4 -142 -8 2 -5 53 -8 112 -8 350 0 664 151 887 425 65 79 174 278 161 292 -2 1 -21 -34 -43 -80z"/>
 <path d="M540 483 c1 -10 59 -60 130 -114 59 -44 258 -146 312 -159 18 -5 60 -16 93 -24 33 -8 74 -15 90 -14 19 0 23 2 10 4 -256 54 -406 121 -562 253 -40 34 -73 58 -73 54z"/>
 </g>
<g id="layer105" fill="#63504d" stroke="none">
 <path d="M1357 1964 c-7 -7 14 -44 26 -44 4 0 3 8 -2 19 -6 10 -7 21 -4 25 3 3 2 6 -4 6 -5 0 -12 -3 -16 -6z"/>
 <path d="M1284 1918 c-4 -7 -3 -8 4 -4 12 7 16 16 8 16 -3 0 -8 -5 -12 -12z"/>
 <path d="M1430 1910 c0 -7 3 -10 7 -7 3 4 3 10 0 14 -4 3 -7 0 -7 -7z"/>
 <path d="M1245 1900 c-3 -5 -1 -10 4 -10 6 0 11 5 11 10 0 6 -2 10 -4 10 -3 0 -8 -4 -11 -10z"/>
 <path d="M1395 1880 c-3 -5 -2 -10 4 -10 5 0 13 5 16 10 3 6 2 10 -4 10 -5 0 -13 -4 -16 -10z"/>
 <path d="M1170 1860 c-9 -6 -10 -10 -3 -10 6 0 15 5 18 10 8 12 4 12 -15 0z"/>
 <path d="M1285 1860 c-3 -5 -1 -10 4 -10 6 0 11 5 11 10 0 6 -2 10 -4 10 -3 0 -8 -4 -11 -10z"/>
 <path d="M1289 1809 l-24 -20 28 17 c15 9 27 18 27 20 0 8 -8 4 -31 -17z"/>
 <path d="M1494 1808 l-19 -23 23 19 c21 18 27 26 19 26 -2 0 -12 -10 -23 -22z"/>
 <path d="M1093 1813 c9 -2 14 -9 11 -15 -4 -7 -2 -8 5 -4 15 10 4 26 -17 25 -15 -1 -15 -2 1 -6z"/>
 <path d="M1542 1790 c7 -11 17 -20 22 -20 5 0 1 9 -9 20 -10 11 -20 20 -22 20 -2 0 2 -9 9 -20z"/>
 <path d="M1234 1778 c-4 -7 -3 -8 4 -4 7 4 12 9 12 12 0 8 -9 4 -16 -8z"/>
 <path d="M1013 1773 c4 -3 10 -3 14 0 3 4 0 7 -7 7 -7 0 -10 -3 -7 -7z"/>
 <path d="M985 1760 c-3 -5 -1 -10 4 -10 6 0 11 5 11 10 0 6 -2 10 -4 10 -3 0 -8 -4 -11 -10z"/>
 <path d="M1204 1758 c-4 -7 -3 -8 4 -4 12 7 16 16 8 16 -3 0 -8 -5 -12 -12z"/>
 <path d="M1560 1750 c0 -6 7 -10 15 -10 8 0 15 2 15 4 0 2 -7 6 -15 10 -8 3 -15 1 -15 -4z"/>
 <path d="M952 1728 c-1 -14 -5 -35 -8 -45 -5 -14 -4 -15 5 -7 7 7 11 26 8 45 -3 28 -4 29 -5 7z"/>
 <path d="M1174 1738 c-4 -7 -3 -8 4 -4 7 4 12 9 12 12 0 8 -9 4 -16 -8z"/>
 <path d="M1455 1730 c3 -5 8 -10 11 -10 3 0 2 5 -1 10 -3 6 -8 10 -11 10 -3 0 -2 -4 1 -10z"/>
 <path d="M985 1710 c3 -5 8 -10 11 -10 2 0 4 5 4 10 0 6 -5 10 -11 10 -5 0 -7 -4 -4 -10z"/>
 <path d="M1110 1700 c-9 -6 -10 -10 -3 -10 6 0 15 5 18 10 8 12 4 12 -15 0z"/>
 <path d="M1613 1695 c0 -8 4 -12 9 -9 5 3 6 10 3 15 -9 13 -12 11 -12 -6z"/>
 <path d="M1074 1678 c-4 -7 -3 -8 4 -4 12 7 16 16 8 16 -3 0 -8 -5 -12 -12z"/>
 <path d="M618 1653 c7 -3 16 -2 19 1 4 3 -2 6 -13 5 -11 0 -14 -3 -6 -6z"/>
 <path d="M691 1644 c0 -11 3 -14 6 -6 3 7 2 16 -1 19 -3 4 -6 -2 -5 -13z"/>
 <path d="M961 1644 c0 -11 3 -14 6 -6 3 7 2 16 -1 19 -3 4 -6 -2 -5 -13z"/>
 <path d="M417 1629 c7 -7 15 -10 18 -7 3 3 -2 9 -12 12 -14 6 -15 5 -6 -5z"/>
 <path d="M498 1633 c6 -2 18 -2 25 0 6 3 1 5 -13 5 -14 0 -19 -2 -12 -5z"/>
 <path d="M983 1633 c4 -3 10 -3 14 0 3 4 0 7 -7 7 -7 0 -10 -3 -7 -7z"/>
 <path d="M1040 1625 c-9 -11 -10 -19 -3 -26 8 -8 13 -5 18 11 9 28 2 35 -15 15z"/>
 <path d="M286 1608 c5 -8 2 -9 -9 -5 -10 3 -17 2 -17 -4 0 -14 32 -7 38 9 2 6 -1 12 -8 12 -6 0 -8 -5 -4 -12z"/>
 <path d="M393 1613 c4 -3 10 -3 14 0 3 4 0 7 -7 7 -7 0 -10 -3 -7 -7z"/>
 <path d="M704 1608 c-4 -7 -3 -8 4 -4 12 7 16 16 8 16 -3 0 -8 -5 -12 -12z"/>
 <path d="M960 1610 c0 -7 3 -10 7 -7 3 4 3 10 0 14 -4 3 -7 0 -7 -7z"/>
 <path d="M1680 1616 c0 -2 8 -10 18 -17 15 -13 16 -12 3 4 -13 16 -21 21 -21 13z"/>
 <path d="M1560 1600 c0 -7 3 -10 7 -7 3 4 3 10 0 14 -4 3 -7 0 -7 -7z"/>
 <path d="M1580 1583 c0 -6 8 -17 18 -24 16 -13 16 -13 2 6 -8 11 -16 22 -17 24 -2 2 -3 0 -3 -6z"/>
 <path d="M980 1570 c0 -5 5 -10 10 -10 6 0 10 5 10 10 0 6 -4 10 -10 10 -5 0 -10 -4 -10 -10z"/>
 <path d="M1729 1562 c5 -10 18 -25 27 -33 11 -9 9 -2 -6 19 -26 35 -36 42 -21 14z"/>
 <path d="M600 1520 c0 -6 4 -9 9 -5 5 3 12 -2 14 -10 4 -12 5 -12 3 1 -1 19 -26 32 -26 14z"/>
 <path d="M1080 1520 c0 -7 3 -10 7 -7 3 4 3 10 0 14 -4 3 -7 0 -7 -7z"/>
 <path d="M533 1513 c4 -3 10 -3 14 0 3 4 0 7 -7 7 -7 0 -10 -3 -7 -7z"/>
 <path d="M460 1500 c-18 -12 -2 -12 25 0 13 6 15 9 5 9 -8 0 -22 -4 -30 -9z"/>
 <path d="M1115 1500 c3 -5 8 -10 11 -10 3 0 2 5 -1 10 -3 6 -8 10 -11 10 -3 0 -2 -4 1 -10z"/>
 <path d="M1659 1478 c21 -24 51 -28 51 -8 0 15 -18 21 -25 10 -5 -8 -14 -5 -28 7 -19 15 -19 14 2 -9z"/>
 <path d="M403 1483 c4 -3 10 -3 14 0 3 4 0 7 -7 7 -7 0 -10 -3 -7 -7z"/>
 <path d="M1155 1480 c3 -5 8 -10 11 -10 3 0 2 5 -1 10 -3 6 -8 10 -11 10 -3 0 -2 -4 1 -10z"/>
 <path d="M287 1466 c-3 -8 2 -16 12 -19 11 -3 17 2 18 14 2 22 -22 26 -30 5z"/>
 <path d="M725 1469 c-4 -6 -5 -12 -2 -15 2 -3 7 2 10 11 7 17 1 20 -8 4z"/>
 <path d="M1080 1470 c0 -5 5 -10 10 -10 6 0 10 5 10 10 0 6 -4 10 -10 10 -5 0 -10 -4 -10 -10z"/>
 <path d="M990 1466 c0 -2 7 -7 16 -10 8 -3 12 -2 9 4 -6 10 -25 14 -25 6z"/>
 <path d="M1031 1448 c2 -2 17 -14 33 -28 l29 -25 -19 27 c-10 15 -25 28 -33 28 -8 0 -12 -1 -10 -2z"/>
 <path d="M1173 1400 c0 -25 2 -35 4 -22 2 12 2 32 0 45 -2 12 -4 2 -4 -23z"/>
 <path d="M1695 1430 c3 -5 8 -10 11 -10 3 0 2 5 -1 10 -3 6 -8 10 -11 10 -3 0 -2 -4 1 -10z"/>
 <path d="M640 1410 c0 -7 3 -10 7 -7 3 4 3 10 0 14 -4 3 -7 0 -7 -7z"/>
 <path d="M1840 1409 c-13 -9 -13 -10 1 -6 9 3 23 0 30 -6 11 -10 11 -9 0 6 -7 9 -14 17 -15 17 0 0 -8 -5 -16 -11z"/>
 <path d="M700 1390 c0 -5 5 -10 10 -10 6 0 10 5 10 10 0 6 -4 10 -10 10 -5 0 -10 -4 -10 -10z"/>
 <path d="M635 1380 c-3 -5 -1 -10 4 -10 6 0 11 5 11 10 0 6 -2 10 -4 10 -3 0 -8 -4 -11 -10z"/>
 <path d="M1081 1368 c-1 -16 -5 -28 -11 -28 -5 0 -10 -4 -10 -10 0 -5 4 -10 10 -10 12 0 24 44 17 62 -3 7 -6 1 -6 -14z"/>
 <path d="M1765 1349 c16 -19 33 -38 37 -43 4 -5 5 0 2 11 -3 11 -20 31 -37 43 l-32 23 30 -34z"/>
 <path d="M1887 1369 c7 -7 15 -10 18 -7 3 3 -2 9 -12 12 -14 6 -15 5 -6 -5z"/>
 <path d="M1822 1333 c4 -20 22 -21 26 -2 2 9 -4 16 -13 16 -9 0 -15 -7 -13 -14z"/>
 <path d="M1910 1340 c0 -7 3 -10 7 -7 3 4 3 10 0 14 -4 3 -7 0 -7 -7z"/>
 <path d="M640 1319 c0 -5 5 -7 10 -4 6 3 10 8 10 11 0 2 -4 4 -10 4 -5 0 -10 -5 -10 -11z"/>
 <path d="M705 1320 c-3 -6 1 -7 9 -4 18 7 21 14 7 14 -6 0 -13 -4 -16 -10z"/>
 <path d="M1936 1303 c-6 -14 -5 -15 5 -6 7 7 10 15 7 18 -3 3 -9 -2 -12 -12z"/>
 <path d="M675 1274 c-9 -15 -12 -23 -6 -20 11 7 35 46 28 46 -3 0 -12 -12 -22 -26z"/>
 <path d="M1910 1280 c0 -7 3 -10 7 -7 3 4 3 10 0 14 -4 3 -7 0 -7 -7z"/>
 <path d="M1590 1255 c0 -8 5 -15 10 -15 6 0 10 7 10 15 0 8 -4 15 -10 15 -5 0 -10 -7 -10 -15z"/>
 <path d="M1690 1261 c0 -5 5 -13 10 -16 6 -3 10 -2 10 4 0 5 -4 13 -10 16 -5 3 -10 2 -10 -4z"/>
 <path d="M1780 1259 c0 -5 5 -7 10 -4 6 3 10 8 10 11 0 2 -4 4 -10 4 -5 0 -10 -5 -10 -11z"/>
 <path d="M1564 1248 c-4 -7 -3 -8 4 -4 12 7 16 16 8 16 -3 0 -8 -5 -12 -12z"/>
 <path d="M1745 1250 c-3 -5 1 -10 10 -10 9 0 13 5 10 10 -3 6 -8 10 -10 10 -2 0 -7 -4 -10 -10z"/>
 <path d="M1876 1244 c-23 -23 -20 -30 4 -9 11 10 20 20 20 22 0 7 -9 2 -24 -13z"/>
 <path d="M1056 1213 c-6 -14 -5 -15 5 -6 7 7 10 15 7 18 -3 3 -9 -2 -12 -12z"/>
 <path d="M1165 1220 c3 -5 8 -10 11 -10 3 0 2 5 -1 10 -3 6 -8 10 -11 10 -3 0 -2 -4 1 -10z"/>
 <path d="M1150 1200 c0 -7 3 -10 7 -7 3 4 3 10 0 14 -4 3 -7 0 -7 -7z"/>
 <path d="M1834 1198 c-4 -7 -3 -8 4 -4 12 7 16 16 8 16 -3 0 -8 -5 -12 -12z"/>
 <path d="M576 1174 c-5 -14 -4 -15 9 -4 17 14 19 20 6 20 -5 0 -12 -7 -15 -16z"/>
 <path d="M1610 1180 c0 -7 3 -10 7 -7 3 4 3 10 0 14 -4 3 -7 0 -7 -7z"/>
 <path d="M1712 1174 c10 -10 20 -16 22 -13 3 3 -5 11 -17 18 -21 13 -21 12 -5 -5z"/>
 <path d="M1805 1176 c-23 -25 -26 -40 -4 -19 12 12 21 24 18 27 -2 2 -9 -1 -14 -8z"/>
 <path d="M1497 1173 c-4 -3 -7 -13 -7 -21 0 -18 13 -7 16 13 2 17 1 18 -9 8z"/>
 <path d="M1580 1170 c0 -5 5 -10 10 -10 6 0 10 5 10 10 0 6 -4 10 -10 10 -5 0 -10 -4 -10 -10z"/>
 <path d="M2090 1121 c-30 -30 -44 -48 -32 -40 30 18 102 88 93 92 -3 1 -31 -22 -61 -52z"/>
 <path d="M486 1144 c-4 -9 -4 -19 -1 -22 2 -3 7 3 11 12 4 9 4 19 1 22 -2 3 -7 -3 -11 -12z"/>
 <path d="M1138 1142 c-3 -11 0 -19 7 -19 7 0 10 8 7 19 -2 10 -6 18 -7 18 -1 0 -5 -8 -7 -18z"/>
 <path d="M2210 1120 c0 -5 5 -10 11 -10 5 0 7 5 4 10 -3 6 -8 10 -11 10 -2 0 -4 -4 -4 -10z"/>
 <path d="M1475 1110 c-3 -5 -1 -10 4 -10 6 0 11 5 11 10 0 6 -2 10 -4 10 -3 0 -8 -4 -11 -10z"/>
 <path d="M502 1090 c0 -14 2 -19 5 -12 2 6 2 18 0 25 -3 6 -5 1 -5 -13z"/>
 <path d="M1014 1098 c-4 -7 -3 -8 4 -4 7 4 12 9 12 12 0 8 -9 4 -16 -8z"/>
 <path d="M1553 1095 c-3 -9 -3 -18 -1 -21 3 -3 8 4 11 16 6 23 -1 27 -10 5z"/>
 <path d="M1117 1083 c-4 -3 -7 -11 -7 -17 0 -6 5 -5 12 2 6 6 9 14 7 17 -3 3 -9 2 -12 -2z"/>
 <path d="M1470 1080 c0 -7 3 -10 7 -7 3 4 3 10 0 14 -4 3 -7 0 -7 -7z"/>
 <path d="M2288 1073 c7 -3 16 -2 19 1 4 3 -2 6 -13 5 -11 0 -14 -3 -6 -6z"/>
 <path d="M2023 1053 c4 -3 10 -3 14 0 3 4 0 7 -7 7 -7 0 -10 -3 -7 -7z"/>
 <path d="M2361 1029 c17 -11 39 -12 39 -1 0 4 -12 8 -27 9 -19 1 -22 -1 -12 -8z"/>
 <path d="M1460 1020 c0 -7 3 -10 7 -7 3 4 3 10 0 14 -4 3 -7 0 -7 -7z"/>
 <path d="M2166 1023 c-10 -11 -7 -25 5 -18 5 4 18 0 27 -7 27 -24 42 -30 42 -19 0 6 -7 11 -15 11 -8 0 -15 3 -15 8 0 11 -37 32 -44 25z"/>
 <path d="M1959 1003 c-13 -16 -12 -17 4 -4 16 13 21 21 13 21 -2 0 -10 -8 -17 -17z"/>
 <path d="M2050 1010 c0 -7 3 -10 7 -7 3 4 3 10 0 14 -4 3 -7 0 -7 -7z"/>
 <path d="M1440 1001 c0 -5 5 -13 10 -16 6 -3 10 -2 10 4 0 5 -4 13 -10 16 -5 3 -10 2 -10 -4z"/>
 <path d="M2134 998 c-4 -7 -3 -8 4 -4 12 7 16 16 8 16 -3 0 -8 -5 -12 -12z"/>
 <path d="M628 978 c6 -6 18 -8 28 -6 14 3 12 5 -9 10 -19 3 -25 2 -19 -4z"/>
 <path d="M1480 980 c0 -5 5 -10 11 -10 5 0 7 5 4 10 -3 6 -8 10 -11 10 -2 0 -4 -4 -4 -10z"/>
 <path d="M940 966 c0 -8 6 -16 14 -19 10 -4 12 0 9 14 -6 22 -23 26 -23 5z"/>
 <path d="M1924 968 c-4 -7 -3 -8 4 -4 12 7 16 16 8 16 -3 0 -8 -5 -12 -12z"/>
 <path d="M510 960 c0 -7 3 -10 7 -7 3 4 3 10 0 14 -4 3 -7 0 -7 -7z"/>
 <path d="M2074 958 c-4 -7 -3 -8 4 -4 12 7 16 16 8 16 -3 0 -8 -5 -12 -12z"/>
 <path d="M2255 960 c3 -5 8 -10 11 -10 3 0 2 5 -1 10 -3 6 -8 10 -11 10 -3 0 -2 -4 1 -10z"/>
 <path d="M804 948 c-4 -7 -3 -8 4 -4 12 7 16 16 8 16 -3 0 -8 -5 -12 -12z"/>
 <path d="M1029 943 c-13 -16 -12 -17 4 -4 9 7 17 15 17 17 0 8 -8 3 -21 -13z"/>
 <path d="M1540 910 c0 -32 4 -49 10 -45 6 3 10 24 10 45 0 21 -4 42 -10 45 -6 4 -10 -13 -10 -45z"/>
 <path d="M835 939 c-16 -6 -14 -8 13 -8 33 -1 41 4 20 12 -7 2 -22 1 -33 -4z"/>
 <path d="M1904 929 c-4 -7 -3 -9 4 -5 6 3 13 -2 15 -11 4 -16 5 -16 6 -1 1 21 -15 32 -25 17z"/>
 <path d="M2034 928 c-4 -7 -3 -8 4 -4 7 4 12 9 12 12 0 8 -9 4 -16 -8z"/>
 <path d="M2365 930 c3 -5 8 -10 11 -10 3 0 2 5 -1 10 -3 6 -8 10 -11 10 -3 0 -2 -4 1 -10z"/>
 <path d="M548 923 c7 -3 16 -2 19 1 4 3 -2 6 -13 5 -11 0 -14 -3 -6 -6z"/>
 <path d="M606 898 c3 -5 10 -6 15 -3 13 9 11 12 -6 12 -8 0 -12 -4 -9 -9z"/>
 <path d="M845 900 c3 -5 8 -10 11 -10 2 0 4 5 4 10 0 6 -5 10 -11 10 -5 0 -7 -4 -4 -10z"/>
 <path d="M2353 893 c4 -3 10 -3 14 0 3 4 0 7 -7 7 -7 0 -10 -3 -7 -7z"/>
 <path d="M665 880 c3 -5 8 -10 11 -10 2 0 4 5 4 10 0 6 -5 10 -11 10 -5 0 -7 -4 -4 -10z"/>
 <path d="M962 874 c-7 -8 -8 -14 -3 -14 10 0 25 19 20 25 -2 1 -10 -3 -17 -11z"/>
 <path d="M800 870 c0 -6 7 -10 15 -10 8 0 15 2 15 4 0 2 -7 6 -15 10 -8 3 -15 1 -15 -4z"/>
 <path d="M735 860 c3 -5 8 -10 11 -10 3 0 2 5 -1 10 -3 6 -8 10 -11 10 -3 0 -2 -4 1 -10z"/>
 <path d="M1980 850 c0 -5 5 -10 10 -10 6 0 10 5 10 10 0 6 -4 10 -10 10 -5 0 -10 -4 -10 -10z"/>
 <path d="M793 843 c4 -3 10 -3 14 0 3 4 0 7 -7 7 -7 0 -10 -3 -7 -7z"/>
 <path d="M2030 831 c0 -6 4 -13 10 -16 6 -3 7 1 4 9 -7 18 -14 21 -14 7z"/>
 <path d="M870 826 c0 -2 7 -7 16 -10 8 -3 12 -2 9 4 -6 10 -25 14 -25 6z"/>
 <path d="M1940 780 c0 -7 3 -10 7 -7 3 4 3 10 0 14 -4 3 -7 0 -7 -7z"/>
 <path d="M1446 754 c-3 -8 -2 -12 3 -9 5 3 12 -5 14 -17 4 -20 4 -20 6 4 1 31 -14 46 -23 22z"/>
 <path d="M1550 740 c0 -7 3 -10 7 -7 3 4 3 10 0 14 -4 3 -7 0 -7 -7z"/>
 <path d="M1889 683 c-13 -16 -12 -17 4 -4 16 13 21 21 13 21 -2 0 -10 -8 -17 -17z"/>
 <path d="M2050 690 c0 -7 3 -10 7 -7 3 4 3 10 0 14 -4 3 -7 0 -7 -7z"/>
 <path d="M1657 659 c7 -7 15 -10 18 -7 3 3 -2 9 -12 12 -14 6 -15 5 -6 -5z"/>
 <path d="M1563 653 c4 -3 10 -3 14 0 3 4 0 7 -7 7 -7 0 -10 -3 -7 -7z"/>
 <path d="M1860 650 c0 -7 3 -10 7 -7 3 4 3 10 0 14 -4 3 -7 0 -7 -7z"/>
 <path d="M1984 628 l-29 -33 33 29 c30 28 37 36 29 36 -2 0 -16 -15 -33 -32z"/>
 <path d="M1744 628 c-4 -7 -3 -8 4 -4 12 7 16 16 8 16 -3 0 -8 -5 -12 -12z"/>
 <path d="M1803 597 l-22 -23 30 4 c22 3 27 7 19 17 -5 6 -7 15 -3 18 3 4 4 7 2 7 -2 0 -14 -11 -26 -23z"/>
 <path d="M1555 600 c3 -5 8 -10 11 -10 2 0 4 5 4 10 0 6 -5 10 -11 10 -5 0 -7 -4 -4 -10z"/>
 <path d="M1595 580 c3 -5 8 -10 11 -10 3 0 2 5 -1 10 -3 6 -8 10 -11 10 -3 0 -2 -4 1 -10z"/>
 <path d="M1907 573 c-4 -3 -7 -11 -7 -17 0 -6 5 -5 12 2 6 6 9 14 7 17 -3 3 -9 2 -12 -2z"/>
 <path d="M1645 560 c3 -5 8 -10 11 -10 2 0 4 5 4 10 0 6 -5 10 -11 10 -5 0 -7 -4 -4 -10z"/>
 <path d="M1670 546 c0 -2 7 -7 16 -10 8 -3 12 -2 9 4 -6 10 -25 14 -25 6z"/>
 <path d="M1746 535 c-11 -8 -17 -17 -14 -20 2 -3 13 4 23 15 21 23 18 25 -9 5z"/>
 <path d="M1849 513 l-24 -28 28 24 c15 14 27 26 27 28 0 8 -8 1 -31 -24z"/>
 <path d="M1763 503 c4 -3 10 -3 14 0 3 4 0 7 -7 7 -7 0 -10 -3 -7 -7z"/>
 </g>
<g id="layer106" fill="#f3c74d" stroke="none">
 <path d="M1205 2384 c-316 -34 -618 -217 -797 -482 -51 -75 -121 -213 -133 -263 l-6 -26 208 35 c114 19 211 37 216 41 10 10 -158 -14 -312 -44 -46 -9 -86 -14 -88 -11 -3 3 5 31 18 63 102 256 329 486 583 592 142 59 217 74 401 79 175 4 213 0 350 -40 227 -66 440 -222 580 -423 58 -84 125 -209 125 -234 0 -6 4 -19 9 -29 20 -38 42 -130 52 -221 11 -96 4 -333 -10 -359 -5 -9 -24 -2 -69 28 -35 22 -65 40 -68 40 -3 0 -25 14 -49 30 -24 17 -51 30 -60 30 -18 0 -93 -61 -203 -165 l-64 -60 6 -50 c3 -27 9 -77 12 -110 l5 -60 -50 -52 c-28 -29 -59 -53 -69 -53 -21 0 -202 86 -203 97 -3 42 -10 68 -19 77 -8 8 -10 3 -5 -19 3 -16 8 -40 11 -53 4 -18 28 -35 107 -73 56 -27 107 -49 112 -49 6 0 39 29 74 64 l63 63 -17 108 c-9 59 -13 111 -9 115 100 91 238 210 245 210 5 0 60 -32 123 -70 62 -39 118 -70 124 -70 15 0 19 20 32 135 29 273 -60 573 -235 792 -210 263 -497 407 -829 417 -67 2 -139 2 -161 0z"/>
 <path d="M1360 1990 c-14 -11 -33 -20 -42 -20 -10 0 -18 -4 -18 -10 0 -5 -9 -10 -19 -10 -11 0 -23 -4 -26 -10 -3 -5 -54 -35 -113 -66 -172 -92 -196 -105 -206 -115 -21 -19 7 -7 91 39 49 27 154 83 234 125 l146 77 27 -52 c21 -40 24 -53 14 -60 -7 -5 -97 -60 -200 -124 l-188 -116 0 -48 0 -48 63 -35 62 -34 0 -111 c0 -61 4 -107 8 -103 12 12 20 173 10 200 -6 16 -33 37 -69 56 -56 30 -59 33 -62 72 -3 40 -1 43 50 75 29 19 60 37 68 41 8 4 45 27 82 50 37 23 96 60 132 82 36 22 66 45 66 50 1 23 -55 115 -70 115 -8 0 -26 -9 -40 -20z"/>
 <path d="M1456 1807 c-25 -24 -46 -48 -46 -53 1 -9 37 -55 243 -307 144 -177 148 -191 45 -157 -67 22 -106 14 -163 -33 -58 -47 -106 -175 -104 -275 1 -39 3 -33 14 40 18 112 48 180 98 223 52 45 96 53 163 30 44 -15 56 -16 69 -5 8 7 15 16 15 20 0 4 -84 110 -186 236 l-185 229 45 42 c25 24 49 43 54 43 6 0 52 -53 104 -117 143 -178 339 -407 352 -412 11 -4 -17 30 -149 184 -33 39 -73 87 -90 108 -164 202 -202 246 -216 246 -9 1 -38 -19 -63 -42z"/>
 <path d="M930 1682 c0 -33 4 -63 10 -67 5 -3 7 18 3 57 -7 82 -13 87 -13 10z"/>
 <path d="M711 1669 c0 -13 10 -92 23 -175 l22 -151 -68 -84 c-59 -74 -67 -89 -67 -124 l2 -40 6 40 c5 29 26 64 75 125 60 74 67 88 61 115 -3 16 -10 62 -15 100 -21 158 -29 207 -34 212 -3 4 -6 -5 -5 -18z"/>
 <path d="M944 1532 c4 -66 24 -102 55 -102 36 -1 51 -25 51 -85 0 -71 7 -69 13 3 5 60 0 69 -62 96 -37 17 -41 23 -42 55 -1 20 -5 50 -10 66 -6 22 -7 13 -5 -33z"/>
 <path d="M400 1467 c-91 -23 -169 -46 -173 -51 -4 -6 -6 -83 -4 -171 3 -125 9 -177 26 -238 31 -113 68 -201 122 -292 51 -86 138 -200 145 -192 3 3 -18 34 -47 70 -70 89 -105 148 -164 282 -45 100 -75 266 -75 416 l0 116 38 11 c107 32 318 79 326 72 13 -13 24 -87 15 -102 -4 -7 -38 -43 -76 -80 -37 -37 -65 -69 -62 -72 3 -3 40 29 82 72 l77 77 -11 63 c-10 54 -14 62 -33 61 -11 -1 -95 -20 -186 -42z"/>
 <path d="M1865 1198 c-55 -56 -87 -91 -71 -78 17 14 45 41 64 60 18 19 52 54 75 78 23 23 39 42 36 42 -2 0 -49 -46 -104 -102z"/>
 <path d="M1040 1256 c-5 -15 -10 -36 -10 -47 0 -38 -61 -141 -123 -208 -40 -43 -46 -44 -137 -21 -19 5 -56 14 -81 20 -42 11 -46 15 -47 42 0 17 -6 36 -12 42 -8 8 -9 -1 -4 -34 4 -25 8 -46 9 -48 6 -6 146 -40 194 -47 l48 -6 47 52 c63 70 96 128 118 207 18 66 17 97 -2 48z"/>
 <path d="M1171 1188 c-7 -37 -25 -93 -41 -126 -29 -61 -167 -234 -202 -253 -11 -6 -36 -8 -55 -4 -61 11 -307 94 -339 114 -30 18 -32 23 -38 103 -4 45 -11 99 -16 118 l-8 35 -1 -44 c-1 -37 9 -113 25 -198 2 -13 9 -23 15 -23 5 0 29 -9 51 -20 23 -11 50 -20 59 -20 10 0 21 -4 24 -10 3 -5 15 -10 26 -10 10 0 27 -4 37 -9 32 -17 157 -51 189 -51 25 0 43 13 100 73 38 41 83 93 100 118 55 80 97 193 91 244 -2 23 -6 14 -17 -37z"/>
 <path d="M460 1201 c0 -6 5 -13 10 -16 6 -3 10 1 10 9 0 9 -4 16 -10 16 -5 0 -10 -4 -10 -9z"/>
 <path d="M1630 1167 c-46 -23 -63 -77 -65 -211 -1 -67 -1 -92 1 -56 2 36 9 98 15 138 18 111 70 151 132 102 31 -24 45 -26 26 -3 -11 13 -69 44 -81 43 -2 0 -14 -6 -28 -13z"/>
 <path d="M2097 954 c-45 -36 -56 -50 -52 -67 3 -12 12 -60 20 -107 13 -78 13 -86 -3 -104 -26 -30 -234 -206 -242 -206 -28 0 -359 156 -365 172 -3 7 -9 49 -14 93 l-8 80 -2 -60 c0 -33 4 -77 10 -98 11 -40 14 -42 214 -132 33 -15 73 -33 89 -41 75 -36 81 -34 216 84 141 123 134 105 112 257 l-11 80 27 23 c15 13 38 31 52 42 l26 18 87 -60 c100 -68 98 -60 39 -168 -72 -132 -203 -284 -317 -365 -168 -120 -398 -205 -557 -205 -31 0 -60 -5 -64 -11 -10 -16 129 -3 235 23 257 62 488 219 643 438 43 60 133 229 126 234 -25 21 -189 126 -195 126 -4 -1 -34 -21 -66 -46z"/>
 <path d="M546 488 c35 -39 163 -137 227 -172 148 -83 306 -131 471 -142 74 -5 97 -4 92 4 -4 8 -37 12 -84 12 -84 0 -181 18 -308 58 -99 31 -301 159 -373 236 -29 31 -52 35 -25 4z"/>
 </g>
<g id="layer107" fill="#5b4e52" stroke="none">
 <path d="M1377 1964 c-3 -4 -2 -15 4 -25 12 -24 0 -25 -17 -1 -11 14 -16 15 -33 5 -12 -7 -31 -19 -43 -25 -13 -7 -25 -15 -28 -18 -3 -3 -38 -21 -78 -40 -44 -21 -70 -40 -68 -47 3 -7 0 -15 -6 -19 -7 -4 -8 -3 -4 4 5 8 0 12 -13 12 -12 0 -21 -4 -21 -10 0 -5 -9 -10 -20 -10 -11 0 -20 -4 -20 -10 0 -5 -7 -10 -15 -10 -8 0 -15 -4 -15 -10 0 -5 -10 -10 -21 -10 -21 0 -22 -3 -16 -67 4 -38 7 -101 7 -140 0 -66 2 -73 19 -73 11 0 23 -4 26 -10 3 -5 14 -10 23 -10 30 -1 55 -47 47 -88 -3 -20 -9 -62 -11 -92 -3 -30 -10 -59 -15 -64 -5 -6 -9 -23 -9 -38 0 -15 -4 -28 -10 -28 -5 0 -10 -8 -10 -18 0 -10 -8 -27 -18 -38 -10 -10 -23 -27 -28 -36 -5 -10 -31 -40 -58 -68 -54 -56 -48 -55 -161 -30 -27 6 -69 14 -93 17 -55 7 -63 22 -63 133 0 77 3 93 21 112 12 13 35 44 52 70 16 27 35 48 40 48 7 0 8 25 4 73 -21 231 -37 291 -72 258 -5 -5 -31 -12 -59 -15 -27 -2 -77 -10 -110 -16 -33 -5 -85 -13 -115 -16 -30 -3 -69 -12 -86 -20 -27 -12 -33 -21 -43 -70 -6 -32 -11 -61 -11 -66 0 -14 50 -9 56 5 3 9 22 14 52 14 26 0 65 5 87 12 74 22 177 42 191 37 9 -3 14 -21 14 -50 0 -25 5 -48 10 -51 25 -16 5 -50 -72 -126 l-82 -80 12 -70 c7 -38 12 -92 12 -119 0 -60 17 -100 42 -100 10 0 18 -4 18 -10 0 -5 14 -10 30 -10 17 0 30 -4 30 -10 0 -5 11 -10 25 -10 14 0 25 -4 25 -10 0 -5 13 -10 29 -10 17 0 33 -4 36 -10 3 -5 19 -10 36 -10 16 0 29 -4 29 -8 0 -4 17 -9 37 -10 21 -2 42 -7 47 -12 12 -12 176 155 176 180 0 5 4 10 8 10 11 0 47 81 69 155 12 43 17 96 18 184 l0 125 -40 20 c-56 29 -75 47 -75 71 0 12 -4 25 -10 31 -19 19 11 71 54 95 23 12 66 39 96 58 31 20 64 42 75 49 11 7 34 19 50 26 17 8 44 26 60 40 17 14 36 26 43 26 15 0 15 21 0 55 -11 24 -28 32 -41 19z m-77 -104 c0 -5 -5 -10 -11 -10 -5 0 -7 5 -4 10 3 6 8 10 11 10 2 0 4 -4 4 -10z m-300 -150 c0 -5 -2 -10 -4 -10 -3 0 -8 5 -11 10 -3 6 -1 10 4 10 6 0 11 -4 11 -10z m-3 -77 c-4 -3 -10 -3 -14 0 -3 4 0 7 7 7 7 0 10 -3 7 -7z m3 -63 c0 -5 -4 -10 -10 -10 -5 0 -10 5 -10 10 0 6 5 10 10 10 6 0 10 -4 10 -10z m100 -100 c0 -5 -4 -10 -10 -10 -5 0 -10 5 -10 10 0 6 5 10 10 10 6 0 10 -4 10 -10z m-380 -80 c0 -5 -4 -10 -10 -10 -5 0 -10 5 -10 10 0 6 5 10 10 10 6 0 10 -4 10 -10z m-60 -64 c0 -3 -4 -8 -10 -11 -5 -3 -10 -1 -10 4 0 6 5 11 10 11 6 0 10 -2 10 -4z m-60 -140 c0 -2 -7 -9 -15 -16 -13 -11 -14 -10 -9 4 5 14 24 23 24 12z m363 -225 c3 -14 1 -18 -9 -14 -8 3 -14 11 -14 19 0 21 17 17 23 -5z m-103 -61 c0 -5 -2 -10 -4 -10 -3 0 -8 5 -11 10 -3 6 -1 10 4 10 6 0 11 -4 11 -10z m-30 -36 c0 -2 -7 -4 -15 -4 -8 0 -15 4 -15 10 0 5 7 7 15 4 8 -4 15 -8 15 -10z"/>
 <path d="M1483 1791 c-18 -16 -33 -33 -33 -38 0 -9 63 -90 107 -138 16 -16 39 -46 52 -65 43 -63 63 -81 77 -69 8 7 15 6 20 -2 4 -7 2 -15 -4 -17 -21 -7 -13 -20 43 -77 65 -66 75 -95 46 -124 -15 -15 -30 -19 -58 -17 -20 2 -39 9 -41 15 -2 6 -21 11 -43 11 -29 0 -39 -4 -39 -16 0 -11 -5 -14 -16 -10 -22 9 -60 -17 -79 -54 -9 -17 -13 -30 -9 -30 4 0 2 -6 -3 -12 -6 -7 -16 -38 -23 -68 -7 -30 -16 -68 -21 -84 -12 -39 -11 -220 0 -231 6 -6 11 -37 13 -70 3 -54 5 -60 26 -63 12 -2 22 -8 22 -13 0 -5 11 -9 25 -9 14 0 25 -3 25 -7 0 -11 50 -33 72 -33 10 0 18 -3 18 -7 0 -10 49 -33 70 -33 9 0 22 6 30 12 8 7 6 3 -4 -9 -19 -23 -19 -23 2 -23 11 0 24 -4 27 -10 12 -20 41 -9 85 32 25 24 48 43 51 43 3 0 33 25 67 56 l62 56 0 61 c0 33 -4 64 -10 67 -5 3 -10 30 -10 59 l0 54 74 50 c73 51 73 51 94 32 12 -11 26 -20 32 -20 5 0 10 -4 10 -8 0 -4 12 -15 28 -24 15 -9 38 -26 51 -37 31 -27 55 -28 48 -1 -3 11 -1 18 3 15 8 -5 30 47 30 70 0 7 -11 16 -25 19 -14 4 -25 11 -25 16 0 6 -7 10 -15 10 -8 0 -15 5 -15 10 0 6 -7 10 -15 10 -9 0 -25 9 -37 20 -12 11 -28 20 -35 20 -8 0 -25 11 -39 25 -33 33 -46 32 -81 -7 -16 -18 -41 -39 -55 -47 -15 -8 -25 -18 -22 -23 3 -4 0 -8 -6 -8 -21 0 -120 -102 -111 -114 5 -6 11 -38 14 -71 4 -33 9 -74 12 -90 6 -26 1 -37 -34 -74 -23 -24 -41 -47 -41 -52 0 -5 -4 -9 -9 -9 -5 0 -17 -7 -26 -16 -11 -12 -13 -20 -5 -29 8 -10 3 -14 -21 -17 -27 -4 -29 -3 -16 7 23 16 21 25 -3 25 -37 0 -191 75 -222 107 -20 21 -21 33 -21 195 0 153 3 177 20 208 11 19 18 41 15 49 -3 10 0 12 12 8 9 -4 16 -2 16 3 0 6 22 10 49 10 39 0 54 -5 72 -25 13 -13 28 -25 33 -25 4 0 47 39 94 86 78 77 85 87 69 98 -9 7 -17 16 -17 19 0 15 -54 62 -69 59 -13 -2 -13 -1 -2 7 11 7 9 15 -15 43 -16 19 -57 68 -92 109 -35 41 -73 86 -85 101 -12 14 -26 24 -31 20 -5 -3 -6 0 -3 5 8 12 -25 53 -43 53 -7 0 -10 7 -6 15 3 8 2 15 -3 15 -4 0 -14 11 -21 25 -7 14 -16 25 -19 25 -3 0 -21 -13 -38 -29z m365 -458 c-4 -22 -22 -20 -26 1 -2 10 3 16 13 16 10 0 15 -7 13 -17z m209 -330 c-4 -3 -7 0 -7 7 0 7 3 10 7 7 3 -4 3 -10 0 -14z m-562 -23 c3 -5 1 -10 -4 -10 -6 0 -11 5 -11 10 0 6 2 10 4 10 3 0 8 -4 11 -10z m505 -130 c0 -5 -4 -10 -10 -10 -5 0 -10 5 -10 10 0 6 5 10 10 10 6 0 10 -4 10 -10z m-423 -197 c-4 -3 -10 -3 -14 0 -3 4 0 7 7 7 7 0 10 -3 7 -7z"/>
 </g>
<g id="layer108" fill="#fdc827" stroke="none">
 <path d="M1120 2358 c-216 -46 -388 -134 -538 -273 -82 -76 -176 -194 -219 -276 -38 -70 -77 -168 -70 -175 2 -3 42 2 88 11 83 16 165 30 266 44 32 4 49 3 46 -3 -4 -5 1 -7 10 -3 13 5 17 -2 22 -31 12 -83 25 -169 29 -207 3 -22 8 -54 12 -70 5 -27 -3 -41 -62 -115 -51 -64 -69 -95 -74 -127 -4 -23 -3 -46 2 -51 5 -5 10 -23 10 -40 1 -27 5 -31 47 -42 25 -6 62 -15 81 -20 91 -23 97 -22 137 21 62 67 123 170 123 208 0 11 5 32 11 48 6 15 11 55 9 87 -2 61 -16 85 -51 86 -34 0 -54 39 -55 108 -1 37 -5 75 -9 84 -4 9 -5 45 -3 78 l3 62 50 27 c28 15 98 53 157 85 59 31 110 61 113 66 3 6 15 10 26 10 10 0 19 5 19 10 0 6 8 10 18 10 9 0 28 9 42 20 14 11 32 20 40 20 15 0 71 -92 70 -115 0 -5 -30 -28 -66 -50 -36 -22 -95 -59 -132 -82 -37 -23 -74 -46 -82 -50 -8 -4 -39 -22 -68 -41 -51 -32 -53 -35 -50 -75 3 -39 6 -42 62 -72 36 -19 63 -40 69 -56 10 -26 3 -182 -10 -202 -4 -6 -6 -26 -4 -44 4 -52 -38 -164 -92 -242 -17 -25 -62 -77 -100 -118 -57 -60 -75 -73 -100 -73 -32 0 -157 34 -189 51 -10 5 -27 9 -37 9 -11 0 -23 5 -26 10 -3 6 -14 10 -24 10 -9 0 -36 9 -59 20 -22 11 -46 20 -51 20 -6 0 -13 10 -15 23 -17 86 -27 172 -25 204 2 21 -1 44 -5 52 -5 7 -4 17 2 23 6 6 8 16 6 22 -3 7 22 38 55 70 84 80 90 89 81 137 -4 22 -12 44 -16 49 -8 7 -219 -40 -327 -72 l-37 -11 0 -116 c0 -150 30 -316 75 -416 59 -133 94 -193 164 -281 28 -36 51 -69 51 -74 0 -6 6 -10 13 -10 8 0 24 -12 38 -26 72 -77 274 -205 373 -236 126 -39 224 -58 306 -58 42 0 81 -5 87 -11 8 -8 13 -8 17 0 4 6 33 11 64 11 159 0 389 85 557 205 114 81 245 233 317 365 59 108 61 100 -39 168 l-87 60 -26 -18 c-14 -11 -37 -29 -52 -42 l-27 -23 11 -80 c22 -152 29 -134 -112 -257 -135 -118 -141 -120 -216 -84 -16 8 -56 26 -89 41 -201 91 -204 92 -214 132 -10 43 -8 379 4 433 21 102 85 185 161 208 29 8 46 7 92 -8 103 -34 99 -20 -45 157 -206 252 -242 298 -243 307 0 15 91 96 109 95 14 0 51 -42 212 -242 15 -17 76 -90 137 -162 74 -87 108 -134 103 -143 -4 -8 -49 -56 -100 -108 -101 -102 -94 -100 -160 -51 -60 44 -111 4 -129 -100 -15 -90 -17 -211 -3 -246 6 -15 10 -31 10 -35 -4 -25 11 -38 94 -77 50 -25 100 -45 109 -45 10 0 41 24 69 53 l50 52 -5 60 c-3 33 -9 83 -12 110 l-6 50 64 60 c110 104 185 165 203 165 9 0 36 -13 60 -30 24 -16 46 -30 49 -30 3 0 33 -18 68 -40 45 -30 64 -37 69 -28 14 26 21 263 10 359 -10 91 -32 183 -52 221 -5 10 -9 23 -9 29 0 25 -67 150 -125 234 -35 50 -101 126 -147 170 -158 149 -311 228 -551 284 -57 13 -344 13 -407 -1z"/>
 </g>

</svg>